<svg xmlns="http://www.w3.org/2000/svg" viewBox="0 0 220 120" role="img" aria-labelledby="title desc">
  <title id="title">25 anos Mestra Informática</title>
  <desc id="desc">Marca comemorativa de 25 anos com tipografia branca e detalhes em dourado.</desc>
  <defs>
    <linearGradient id="gold" x1="0%" y1="0%" x2="100%" y2="100%">
      <stop offset="0%" stop-color="#ffe07a" />
      <stop offset="50%" stop-color="#ffd24d" />
      <stop offset="100%" stop-color="#f0a400" />
    </linearGradient>
  </defs>
  <rect width="220" height="120" fill="none" />
  <path d="M18 87l46-50H24V25h86v12l-46 50h46v12H18V87z" fill="#ffffff" />
  <path d="M132 27c31 0 50 20 50 48s-19 48-50 48c-28 0-44-14-49-32l18-7c4 12 14 20 31 20 20 0 32-12 32-29s-12-29-32-29c-14 0-25 6-30 16H92c5-20 22-35 40-35z" fill="#ffffff" />
  <text x="22" y="110" font-family="" font-size="26" fill="url(#gold)" font-weight="600">Anos</text>
</svg>
